<svg width="48" height="48" viewBox="0 0 48 48" fill="none" xmlns="http://www.w3.org/2000/svg">
<path d="M42.076 9.80002L26.922 0.804016C26.0375 0.278567 25.0276 0.00141837 23.9987 0.00177035C22.9699 0.00212234 21.9602 0.279961 21.076 0.806016L5.922 9.80002C5.02606 10.3407 4.2858 11.1047 3.77362 12.0172C3.26144 12.9297 2.99487 13.9596 3 15.006V32.996C3 35.142 4.114 37.128 5.924 38.202L21.078 47.196C21.9621 47.7214 22.9715 47.9987 24 47.9987C25.0284 47.9987 26.0379 47.7214 26.922 47.196L42.076 38.202C42.9723 37.6616 43.713 36.8977 44.2255 35.9852C44.738 35.0726 45.0049 34.0426 45 32.996V15.006C45.0053 13.9593 44.7386 12.9292 44.226 12.0166C43.7134 11.104 42.9726 10.3402 42.076 9.80002ZM30.34 37.892L30.366 39.184C30.368 39.34 30.266 39.518 30.144 39.58L29.378 40.02C29.256 40.082 29.156 40.006 29.154 39.85L29.14 38.58C28.484 38.852 27.82 38.918 27.396 38.748C27.316 38.716 27.282 38.598 27.314 38.464L27.592 37.296C27.6131 37.2035 27.6611 37.1193 27.73 37.054C27.7515 37.0335 27.7757 37.016 27.802 37.002C27.846 36.98 27.888 36.974 27.926 36.99C28.384 37.144 28.968 37.072 29.53 36.788C30.244 36.426 30.722 35.698 30.714 34.974C30.708 34.318 30.352 34.044 29.488 34.038C28.388 34.04 27.36 33.824 27.344 32.204C27.33 30.87 28.024 29.482 29.122 28.604L29.108 27.3C29.106 27.14 29.204 26.964 29.33 26.9L30.07 26.428C30.192 26.366 30.292 26.442 30.294 26.602L30.306 27.908C30.852 27.69 31.328 27.632 31.758 27.732C31.852 27.756 31.892 27.884 31.854 28.034L31.566 29.19C31.5439 29.2775 31.4991 29.3575 31.436 29.422C31.4136 29.4443 31.3879 29.4632 31.36 29.478C31.3254 29.4975 31.2849 29.5038 31.246 29.496C31.05 29.452 30.582 29.35 29.848 29.722C29.078 30.112 28.808 30.782 28.814 31.278C28.82 31.872 29.124 32.052 30.176 32.07C31.576 32.094 32.182 32.706 32.196 34.116C32.21 35.494 31.472 36.982 30.34 37.892ZM38.286 35.718C38.286 35.838 38.27 35.95 38.17 36.008L34.338 38.336C34.238 38.394 34.158 38.344 34.158 38.224V37.236C34.158 37.116 34.232 37.05 34.332 36.992L38.106 34.734C38.206 34.676 38.286 34.726 38.286 34.846V35.718ZM40.918 13.594L26.582 22.448C24.794 23.494 23.476 24.666 23.476 26.822V44.488C23.476 45.778 23.996 46.614 24.796 46.856C24.5334 46.905 24.2671 46.9311 24 46.934C23.16 46.934 22.334 46.706 21.606 46.274L6.452 37.28C5.71606 36.8338 5.10808 36.2048 4.68718 35.4541C4.26628 34.7035 4.04677 33.8566 4.05 32.996V15.006C4.05 13.244 4.97 11.602 6.452 10.722L21.606 1.72602C22.3303 1.29533 23.1573 1.06801 24 1.06801C24.8427 1.06801 25.6697 1.29533 26.394 1.72602L41.548 10.722C42.1645 11.0955 42.6922 11.5989 43.0942 12.1971C43.4963 12.7954 43.7631 13.4741 43.876 14.186C43.372 13.114 42.24 12.822 40.918 13.594Z" fill="white"/>
</svg>
