<svg width="48" height="48" viewBox="0 0 48 48" fill="none" xmlns="http://www.w3.org/2000/svg">
<path d="M41.32 14C41.0613 13.5289 40.6816 13.1353 40.22 12.86L25.54 4.38C25.0643 4.13283 24.5361 4.00378 24 4.00378C23.4639 4.00378 22.9357 4.13283 22.46 4.38L7.77999 12.86C7.33021 13.1489 6.95584 13.541 6.688 14.0036C6.42016 14.4662 6.26657 14.9861 6.23999 15.52V32.48C6.25449 33.0159 6.40597 33.5392 6.67999 34C6.93868 34.4711 7.31841 34.8647 7.77999 35.14L22.46 43.62C22.9357 43.8672 23.4639 43.9962 24 43.9962C24.5361 43.9962 25.0643 43.8672 25.54 43.62L40.22 35.14C40.6816 34.8647 41.0613 34.4711 41.32 34C41.594 33.5392 41.7455 33.0159 41.76 32.48V15.52C41.7455 14.9841 41.594 14.4608 41.32 14ZM24 35.84C21.9278 35.8307 19.8944 35.2778 18.1029 34.2365C16.3114 33.1951 14.8245 31.7018 13.7909 29.9058C12.7573 28.1098 12.2132 26.074 12.2129 24.0018C12.2126 21.9296 12.7562 19.8937 13.7893 18.0974C14.8223 16.3011 16.3087 14.8073 18.1 13.7655C19.8912 12.7236 21.9245 12.1701 23.9966 12.1603C26.0688 12.1504 28.1072 12.6846 29.9083 13.7093C31.7093 14.7341 33.2099 16.2136 34.26 18L32 19.42L31.28 19.82L29.28 21.04C28.6414 19.8559 27.6234 18.9207 26.3895 18.3847C25.1556 17.8487 23.7773 17.7429 22.476 18.0844C21.1748 18.4259 20.026 19.1947 19.2143 20.2676C18.4025 21.3404 17.9749 22.6549 18 24C17.9943 25.0408 18.2708 26.0637 18.8 26.96C19.3348 27.8417 20.0878 28.5706 20.9864 29.0766C21.885 29.5825 22.8988 29.8482 23.93 29.8482C24.9612 29.8482 25.975 29.5825 26.8736 29.0766C27.7722 28.5706 28.5252 27.8417 29.06 26.96L34.26 30C33.2071 31.7832 31.7065 33.2603 29.9068 34.2847C28.107 35.3091 26.0708 35.8452 24 35.84ZM35.84 24.66H34.52V26H33.22V24.68H32V23.36H33.32V22H34.62V23.32H35.94L35.84 24.66ZM40.78 24.66H39.46V26H38.14V24.68H36.84V23.36H38.14V22H39.46V23.32H40.78V24.66Z" fill="white"/>
</svg>
