<svg width="48" height="48" viewBox="0 0 48 48" fill="none" xmlns="http://www.w3.org/2000/svg">
<path d="M48 37.176C47.3014 37.4402 46.5303 37.4396 45.8321 37.1744C45.1339 36.9091 44.5569 36.3974 44.21 35.736L37.31 26.194L36.31 24.86L28.304 35.748C27.978 36.3817 27.4323 36.875 26.769 37.1356C26.1057 37.3962 25.3702 37.4063 24.7 37.164L35.016 23.324L25.42 10.822C26.11 10.5733 26.8646 10.57 27.5567 10.8127C28.2489 11.0553 28.8363 11.529 29.22 12.154L36.372 21.814L43.564 12.194C43.8926 11.5716 44.4384 11.0916 45.0977 10.8452C45.757 10.5989 46.4838 10.6035 47.14 10.858L43.416 15.8L38.372 22.366C38.2319 22.4909 38.1198 22.6441 38.0431 22.8154C37.9664 22.9867 37.9267 23.1723 37.9267 23.36C37.9267 23.5477 37.9664 23.7333 38.0431 23.9046C38.1198 24.0759 38.2319 24.229 38.372 24.354L47.98 37.178L48 37.176ZM0.00400873 23.152L0.844009 19.002C3.15201 10.796 12.56 7.38199 19.032 12.462C22.822 15.44 23.768 19.656 23.582 24.408H2.23201C1.88601 32.894 8.01001 38.018 15.84 35.4C17.1093 34.9431 18.2455 34.1785 19.1467 33.1746C20.048 32.1708 20.6861 30.959 21.004 29.648C21.418 28.316 22.1 28.088 23.352 28.472C23.1434 30.0968 22.569 31.653 21.6722 33.0238C20.7753 34.3946 19.5792 35.5441 18.174 36.386C15.8528 37.6556 13.1897 38.1589 10.5653 37.8237C7.94085 37.4886 5.48961 36.3322 3.56201 34.52C1.65607 32.3748 0.504161 29.665 0.282009 26.804C0.282009 26.334 0.122009 25.894 0.0140087 25.472C0.00427279 24.6994 -0.000393973 23.9267 8.73377e-06 23.154L0.00400873 23.152ZM2.25801 22.58H21.566C21.446 16.428 17.564 12.064 12.386 12.024C6.62201 11.944 2.49801 16.212 2.24401 22.552L2.25801 22.58Z" fill="white"/>
</svg>
