<svg width="48" height="48" viewBox="0 0 48 48" fill="none" xmlns="http://www.w3.org/2000/svg">
<path d="M8.7 36.9L8.955 36.5445L20.985 13.7235L21.0105 13.482L15.708 3.52197C15.6109 3.33984 15.459 3.19284 15.2738 3.10177C15.0886 3.0107 14.8795 2.98017 14.6759 3.01451C14.4724 3.04884 14.2849 3.14629 14.1398 3.29309C13.9947 3.43988 13.8994 3.62857 13.8675 3.83247L8.7 36.9Z" fill="#FFC24A"/>
<path d="M8.85001 36.63L9.04201 36.255L20.9475 13.671L15.6585 3.67203C15.5713 3.49814 15.4301 3.35719 15.256 3.2703C15.082 3.18341 14.8844 3.15525 14.693 3.19006C14.5016 3.22486 14.3267 3.32074 14.1943 3.46333C14.062 3.60593 13.9794 3.78757 13.959 3.98103L8.85001 36.63Z" fill="#FFA712"/>
<path d="M24.876 21.015L28.824 16.965L24.8745 9.43351C24.7876 9.27142 24.6583 9.13593 24.5005 9.04148C24.3427 8.94704 24.1622 8.89716 23.9782 8.89716C23.7943 8.89716 23.6138 8.94704 23.456 9.04148C23.2982 9.13593 23.1689 9.27142 23.082 9.43351L20.9715 13.4565V13.8L24.876 21.015Z" fill="#F4BD62"/>
<path d="M24.8055 20.85L28.644 16.92L24.8055 9.60002C24.7427 9.44158 24.6354 9.30468 24.4965 9.20585C24.3576 9.10702 24.1931 9.05047 24.0228 9.04302C23.8525 9.03557 23.6837 9.07753 23.5368 9.16385C23.3898 9.25018 23.2709 9.37717 23.1945 9.52952L21.0735 13.623L21.0105 13.8315L24.8055 20.85Z" fill="#FFA50E"/>
<path d="M8.703 36.9015L8.8185 36.7845L9.237 36.615L24.627 21.282L24.822 20.751L20.9835 13.434L8.703 36.9015Z" fill="#F6820C"/>
<path d="M25.368 44.634L39.3 36.8655L35.319 12.369C35.2905 12.1963 35.2149 12.0348 35.1006 11.9023C34.9863 11.7697 34.8377 11.6712 34.6711 11.6176C34.5045 11.564 34.3263 11.5573 34.1561 11.5983C33.986 11.6393 33.8304 11.7264 33.7065 11.85L8.7 36.9L22.5495 44.6325C22.9801 44.8727 23.4649 44.9989 23.958 44.9989C24.4511 44.9989 24.9359 44.8727 25.3665 44.6325" fill="#FDE068"/>
<path d="M39.1725 36.801L35.2245 12.489C35.2175 12.3238 35.1617 12.1644 35.0641 12.031C34.9665 11.8976 34.8315 11.7961 34.6763 11.7394C34.521 11.6827 34.3523 11.6733 34.1917 11.7125C34.0311 11.7517 33.8857 11.8377 33.774 11.9595L8.85001 36.8535L22.5465 44.5035C22.9737 44.7418 23.4546 44.8669 23.9438 44.8669C24.4329 44.8669 24.9139 44.7418 25.341 44.5035L39.1725 36.801Z" fill="#FCCA3F"/>
<path d="M25.368 44.4C24.9374 44.6403 24.4526 44.7664 23.9595 44.7664C23.4664 44.7664 22.9816 44.6403 22.551 44.4L8.814 36.783L8.7 36.9L22.5495 44.6325C22.9801 44.8728 23.4649 44.9989 23.958 44.9989C24.4511 44.9989 24.9359 44.8728 25.3665 44.6325L39.3 36.8655L39.2655 36.6555L25.368 44.4Z" fill="#EEAB37"/>
</svg>
