<svg width="48" height="48" viewBox="0 0 48 48" fill="none" xmlns="http://www.w3.org/2000/svg">
<path d="M18.4875 35.481C18.4875 35.481 16.8825 36.414 19.629 36.7305C22.5273 37.1382 25.4757 37.0132 28.329 36.3615C29.0661 36.8024 29.8394 37.1798 30.6405 37.4895C22.419 41.013 12.033 37.2855 18.4905 35.481M17.484 30.882C17.484 30.882 15.684 32.214 18.4335 32.499C22.1779 32.9443 25.9704 32.7624 29.655 31.9605C30.1531 32.425 30.7413 32.7823 31.383 33.0105C21.4425 35.9175 10.3695 33.24 17.484 30.879M25.95 23.082C26.2164 23.4035 26.4145 23.7759 26.5324 24.1764C26.6502 24.577 26.6853 24.9973 26.6355 25.4119C26.5857 25.8264 26.452 26.2265 26.2426 26.5877C26.0332 26.9489 25.7525 27.2637 25.4175 27.513C25.4175 27.513 30.561 24.858 28.1985 21.5325C25.992 18.432 24.2985 16.89 33.4605 11.5785C33.4605 11.5785 19.0815 15.1695 25.95 23.082Z" fill="#F89820"/>
<path d="M36.828 38.8815C36.828 38.8815 38.016 39.8595 35.52 40.617C30.774 42.054 15.768 42.489 11.598 40.674C10.098 40.0215 12.909 39.117 13.794 38.928C14.2681 38.8122 14.7551 38.7577 15.243 38.766C13.5765 37.5915 4.4715 41.0715 10.6185 42.066C27.3825 44.784 41.1765 40.842 36.828 38.88M19.26 26.118C19.26 26.118 11.6265 27.9315 16.56 28.59C19.9221 28.851 23.3007 28.8148 26.6565 28.482C28.7773 28.2892 30.8895 28.0115 32.988 27.6495C32.3212 27.9393 31.6791 28.283 31.068 28.677C23.316 30.7155 8.3415 29.7675 12.6525 27.6825C14.7004 26.6434 16.9666 26.1076 19.263 26.1195M32.9535 33.7725C40.833 29.6775 37.1895 25.743 34.647 26.2725C34.3411 26.3291 34.0402 26.4099 33.747 26.514C33.9139 26.277 34.1487 26.096 34.4205 25.995C39.4515 24.2265 43.32 31.212 32.796 33.978C32.8617 33.9198 32.9157 33.8495 32.955 33.771M28.2 3C28.2 3 32.5635 7.365 24.0615 14.079C17.2425 19.464 22.506 22.5345 24.0615 26.0415C20.082 22.4505 17.1615 19.2915 19.1205 16.347C21.996 12.0285 29.964 9.9345 28.2 3Z" fill="#F89820"/>
<path d="M20.034 44.868C27.597 45.3525 39.213 44.5995 39.4875 41.0205C39.4875 41.0205 38.958 42.3705 33.237 43.455C26.9107 44.5422 20.4542 44.6434 14.097 43.755C14.097 43.755 15.0645 44.5545 20.0355 44.874" fill="#F89820"/>
</svg>
