<svg width="48" height="48" viewBox="0 0 48 48" fill="none" xmlns="http://www.w3.org/2000/svg">
<path d="M34.2585 0C32.3919 0.0142034 30.536 0.284732 28.743 0.804L28.6185 0.8445C27.4904 0.649055 26.3492 0.539242 25.2045 0.516C22.845 0.4755 20.82 1.0455 19.188 1.9995C17.5785 1.446 14.2425 0.4755 10.7265 0.672C8.283 0.804 5.61 1.5465 3.624 3.6405C1.656 5.727 0.610503 8.961 0.828003 13.368C0.889503 14.5785 1.2345 16.554 1.812 19.1235C2.382 21.687 3.1875 24.687 4.1955 27.429C5.2035 30.1635 6.303 32.6235 8.0235 34.2945C8.8815 35.13 10.0695 35.8425 11.4675 35.781C12.4455 35.7405 13.3275 35.3115 14.094 34.6785C14.4675 35.1705 14.868 35.3805 15.2265 35.577C15.6885 35.8275 16.125 35.9985 16.587 36.1095C17.415 36.3195 18.8295 36.594 20.4855 36.312C21.0885 36.2035 21.6763 36.0227 22.236 35.7735L22.3065 37.734C22.392 39.804 22.449 41.718 23.064 43.398C23.166 43.6725 23.4405 45.078 24.5175 46.3275C25.6035 47.577 27.711 48.351 30.126 47.835C31.8225 47.475 33.9855 46.8195 35.424 44.7735C36.846 42.7575 37.4865 39.8595 37.6125 35.1555C37.6425 34.8975 37.683 34.6875 37.7205 34.4835L38.0565 34.515H38.097C39.909 34.593 41.8785 34.335 43.527 33.5685C44.979 32.8965 46.0815 32.217 46.8855 31.0065C47.082 30.708 47.307 30.342 47.364 29.7165C47.4255 29.1 47.0655 28.122 46.4715 27.6705C45.285 26.7645 44.535 27.108 43.7295 27.2805C42.9406 27.4505 42.1377 27.5469 41.331 27.5685C43.6425 23.679 45.2985 19.539 46.245 15.8805C46.8075 13.716 47.121 11.724 47.1435 9.9825C47.175 8.241 47.028 6.702 45.987 5.367C42.7215 1.203 38.1345 0.045 34.5885 0.0075H34.26L34.2585 0ZM34.164 1.2825C37.5165 1.251 41.8035 2.1885 44.8815 6.1245C45.5775 7.008 45.7815 8.2965 45.7575 9.891C45.7335 11.4855 45.438 13.383 44.898 15.4695C43.86 19.518 41.8815 24.219 39.1095 28.4475C39.2049 28.5194 39.3099 28.5774 39.4215 28.62C39.999 28.8615 41.319 29.064 43.959 28.5255C44.6235 28.383 45.1095 28.2915 45.6165 28.674C45.7396 28.7778 45.8367 28.9088 45.9003 29.0567C45.9638 29.2046 45.992 29.3653 45.9825 29.526C45.9552 29.7696 45.8636 30.0015 45.717 30.198C45.2085 30.9615 44.2035 31.6905 42.9135 32.292C41.7735 32.8215 40.131 33.096 38.688 33.1125C37.9545 33.12 37.2825 33.0645 36.7095 32.8845L36.6795 32.8785C36.459 34.995 35.9535 39.183 35.6235 41.088C35.3595 42.6255 34.8975 43.854 34.0155 44.7675C33.132 45.69 31.89 46.236 30.21 46.596C28.1325 47.0415 26.6235 46.5645 25.6485 45.744C24.6735 44.9235 24.2265 43.83 23.961 43.1655C23.775 42.705 23.6805 42.111 23.5875 41.313C23.4854 40.3602 23.4174 39.4041 23.3835 38.4465C23.322 36.7665 23.298 35.0865 23.322 33.399C22.4553 34.1936 21.3786 34.7226 20.22 34.923C18.8385 35.157 17.6115 34.923 16.878 34.743C16.5161 34.6507 16.167 34.5142 15.8385 34.3365C15.495 34.1565 15.174 33.954 14.9565 33.546C14.8312 33.3124 14.7924 33.042 14.847 32.7825C14.9118 32.519 15.0635 32.2849 15.2775 32.118C15.675 31.7955 16.2 31.6185 16.9875 31.4535C18.426 31.155 18.933 30.954 19.2375 30.7095C19.4955 30.507 19.794 30.0855 20.307 29.4675C20.307 29.445 20.307 29.4135 20.2995 29.3895C19.37 29.3612 18.4601 29.1151 17.643 28.671C17.3475 28.983 15.807 30.609 13.941 32.859C13.1595 33.795 12.2925 34.335 11.3715 34.3755C10.458 34.413 9.627 33.954 8.925 33.273C7.5195 31.905 6.393 29.553 5.4165 26.8965C4.44 24.24 3.651 21.2805 3.081 18.765C2.5185 16.2405 2.1825 14.2095 2.1345 13.233C1.9245 9.069 2.901 6.2655 4.572 4.491C6.243 2.7165 8.5335 2.0535 10.7685 1.9215C14.7765 1.695 18.588 3.093 19.3545 3.39C20.838 2.382 22.752 1.758 25.143 1.7955C26.2761 1.81216 27.4035 1.95913 28.503 2.2335L28.5435 2.2095C29.0272 2.04196 29.52 1.90174 30.0195 1.7895C31.3771 1.47091 32.7652 1.30041 34.1595 1.281L34.164 1.2825ZM34.4685 2.6175H34.173C33.033 2.631 31.8825 2.766 30.7665 3.0075C33.258 4.11 35.1405 5.8035 36.468 7.5075C37.3905 8.679 38.148 9.9675 38.7255 11.343C38.9535 11.8755 39.102 12.3195 39.18 12.663C39.2265 12.8355 39.2505 12.9825 39.2655 13.131C39.2655 13.209 39.273 13.2885 39.234 13.4205C39.234 13.428 39.2265 13.4445 39.2265 13.452C39.291 15.2025 38.853 16.3875 38.796 18.06C38.7585 19.272 39.0705 20.694 39.1485 22.248C39.219 23.7075 39.0405 25.3095 38.094 26.8875C38.172 26.982 38.2425 27.075 38.3205 27.177C40.8285 23.223 42.6405 18.8565 43.602 15.129C44.118 13.1205 44.3895 11.301 44.4135 9.8655C44.4375 8.427 44.172 7.38 43.827 6.9435C41.139 3.513 37.5075 2.637 34.467 2.616L34.4685 2.6175ZM24.882 3.132C22.524 3.1395 20.8275 3.852 19.5405 4.9215C18.21 6.0315 17.3205 7.539 16.743 9.093C16.047 10.929 15.8055 12.7095 15.711 13.9215L15.7425 13.905C16.5753 13.4387 17.4696 13.0918 18.399 12.8745C19.3995 12.639 20.4855 12.5685 21.4605 12.9525C22.446 13.326 23.25 14.2245 23.547 15.576C24.9555 22.092 23.1105 24.5145 22.431 26.3415C22.173 27.006 21.9465 27.678 21.7665 28.365C21.852 28.3485 21.939 28.3245 22.0245 28.317C22.509 28.2795 22.8825 28.4355 23.103 28.5285C23.7915 28.8165 24.2595 29.4105 24.5175 30.09C24.5808 30.2755 24.6275 30.4662 24.657 30.66C24.6828 30.741 24.6965 30.8255 24.6975 30.9105C24.6188 33.402 24.6263 35.8955 24.72 38.3865C24.768 39.465 24.8385 40.41 24.924 41.16C25.0095 41.9025 25.1265 42.4725 25.206 42.6675C25.4625 43.308 25.8375 44.1435 26.5185 44.7135C27.1905 45.285 28.158 45.66 29.9325 45.285C31.47 44.949 32.4165 44.4945 33.048 43.839C33.6825 43.1745 34.056 42.261 34.2975 40.863C34.665 38.7615 35.391 32.667 35.478 31.527C35.4405 30.6585 35.5635 29.9955 35.8455 29.487C36.126 28.971 36.564 28.6515 36.948 28.479C37.134 28.3935 37.314 28.3395 37.4625 28.2915C37.3053 28.0723 37.1438 27.8562 36.978 27.6435C36.4305 26.9792 35.9805 26.2403 35.6415 25.449C35.4856 25.1172 35.3134 24.7933 35.1255 24.4785C34.8615 24.003 34.5255 23.4 34.173 22.7205C33.4695 21.3765 32.7045 19.737 32.3055 18.1425C31.908 16.548 31.854 14.901 32.8695 13.7445C33.768 12.7125 35.3535 12.285 37.719 12.5265C37.6485 12.315 37.611 12.135 37.4925 11.862C36.9545 10.5983 36.253 9.41069 35.406 8.3295C33.3975 5.76 30.1395 3.2115 25.1175 3.126L24.882 3.132ZM11.6025 3.234C11.3498 3.23373 11.0972 3.24174 10.845 3.258C8.8215 3.3765 6.915 3.96 5.547 5.406C4.1805 6.8595 3.2835 9.2265 3.477 13.1565C3.5175 13.9065 3.837 15.984 4.3905 18.4605C4.947 20.9385 5.7345 23.853 6.681 26.43C7.6245 28.9995 8.7675 31.242 9.861 32.304C10.407 32.8275 10.8825 33.0465 11.313 33.0315C11.7435 33.0075 12.267 32.757 12.9075 31.992C14.0698 30.5895 15.2765 29.2243 16.5255 27.8985C15.6397 27.1274 14.9621 26.1457 14.5553 25.044C14.1485 23.9422 14.0254 22.7558 14.1975 21.594C14.4 20.118 14.4315 18.7335 14.4 17.64C14.3775 16.578 14.3055 15.876 14.3055 15.4305V15.3825L14.298 15.369C14.298 13.0635 14.706 10.7835 15.486 8.619C16.0485 7.125 16.878 5.619 18.126 4.3905C16.9005 3.984 14.7195 3.3765 12.3615 3.258C12.1093 3.24178 11.8567 3.23378 11.604 3.234H11.6025ZM36.3975 13.7955C35.04 13.8195 34.281 14.172 33.876 14.6235C33.312 15.273 33.258 16.413 33.6105 17.82C33.96 19.2255 34.689 20.796 35.3685 22.1025C35.7045 22.758 36.033 23.3445 36.297 23.82C36.5715 24.3045 36.7665 24.6405 36.8835 24.9375C36.993 25.203 37.119 25.437 37.2435 25.656C37.767 24.546 37.8615 23.46 37.806 22.32C37.7355 20.9145 37.4085 19.476 37.4625 18.024C37.518 16.32 37.854 15.21 37.878 13.8975C37.3881 13.8327 36.8946 13.7987 36.4005 13.7955H36.3975ZM19.9305 14.0325C19.5165 14.0325 19.1025 14.0865 18.696 14.181C17.8904 14.3748 17.1148 14.677 16.3905 15.0795C16.1468 15.2114 15.9144 15.3634 15.696 15.534L15.648 15.5715C15.6645 15.87 15.7185 16.572 15.7425 17.619C15.7665 18.759 15.7425 20.211 15.525 21.783C15.0405 25.2045 17.5245 28.0335 20.439 28.041C20.6115 27.3375 20.8905 26.625 21.1725 25.8765C21.984 23.688 23.5785 22.095 22.2345 15.861C22.017 14.8455 21.579 14.4315 20.976 14.1975C20.6405 14.0794 20.2861 14.024 19.9305 14.034V14.0325ZM35.766 14.4375H35.868C35.9925 14.445 36.1185 14.454 36.2265 14.484C36.324 14.5031 36.4171 14.5402 36.501 14.5935C36.54 14.6169 36.5734 14.6484 36.5991 14.686C36.6247 14.7235 36.6419 14.7662 36.6495 14.811V14.8275C36.6491 14.9234 36.6249 15.0178 36.579 15.102C36.52 15.2097 36.4468 15.3091 36.3615 15.3975C36.1598 15.623 35.8864 15.7719 35.5875 15.819C35.2983 15.8561 35.0057 15.7839 34.767 15.6165C34.6725 15.5479 34.5859 15.4689 34.509 15.381C34.4415 15.31 34.3975 15.2199 34.383 15.123C34.3742 15.0306 34.4022 14.9384 34.461 14.8665C34.5305 14.7955 34.6098 14.7349 34.6965 14.6865C34.89 14.577 35.148 14.499 35.4465 14.4585C35.5545 14.445 35.664 14.436 35.766 14.4285V14.4375ZM20.124 14.7735C20.226 14.7735 20.3445 14.781 20.454 14.796C20.766 14.844 21.0315 14.922 21.2415 15.0465C21.3445 15.0967 21.4351 15.1689 21.507 15.258C21.5849 15.352 21.6241 15.4721 21.6165 15.594C21.5952 15.7095 21.5434 15.8172 21.4665 15.906C21.3842 16.0062 21.2871 16.0932 21.1785 16.164C20.9186 16.3507 20.5974 16.4317 20.28 16.3905C19.9585 16.3388 19.6639 16.1796 19.4445 15.939C19.3524 15.84 19.2732 15.7296 19.209 15.6105C19.139 15.5043 19.1087 15.3768 19.1235 15.2505C19.155 15.0405 19.335 14.922 19.5075 14.8605C19.704 14.796 19.914 14.775 20.124 14.7825V14.7735ZM38.2425 29.46H38.235C37.947 29.5695 37.7055 29.61 37.5015 29.7045C37.295 29.7824 37.1253 29.9349 37.026 30.132C36.8925 30.36 36.792 30.7665 36.822 31.4595C36.9122 31.5244 37.0133 31.5727 37.1205 31.602C37.4565 31.704 38.034 31.7745 38.6745 31.7655C39.948 31.749 41.5185 31.4535 42.354 31.062C43.0368 30.7456 43.6708 30.3329 44.2365 29.8365C41.448 30.4065 39.879 30.258 38.9085 29.8605C38.6701 29.7573 38.4466 29.6226 38.244 29.46H38.2425ZM22.1805 29.6475H22.14C22.032 29.655 21.882 29.6955 21.5775 30.024C20.8815 30.804 20.64 31.296 20.07 31.7505C19.4925 32.211 18.75 32.454 17.2575 32.7585C16.9392 32.8155 16.6292 32.9122 16.335 33.0465C16.389 33.0945 16.389 33.111 16.4745 33.1485C16.695 33.2745 16.974 33.3765 17.202 33.438C17.8425 33.594 18.888 33.7815 19.9905 33.594C21.084 33.4065 22.224 32.8815 23.202 31.5165C23.3745 31.2825 23.388 30.93 23.2485 30.555C23.109 30.189 22.803 29.8605 22.593 29.775C22.4616 29.7138 22.3222 29.6714 22.179 29.649L22.1805 29.6475Z" fill="#E1FCFD"/>
</svg>
