<svg width="48" height="48" viewBox="0 0 48 48" fill="none" xmlns="http://www.w3.org/2000/svg">
<path d="M24 27.711C26.0711 27.711 27.75 26.0321 27.75 23.961C27.75 21.8899 26.0711 20.211 24 20.211C21.9289 20.211 20.25 21.8899 20.25 23.961C20.25 26.0321 21.9289 27.711 24 27.711Z" fill="#00D8FF"/>
<path d="M24 32.559C19.4927 32.668 14.9967 32.0604 10.68 30.759C8.68593 30.1269 6.8261 29.1311 5.1945 27.822C4.5719 27.3748 4.05341 26.7981 3.67461 26.1317C3.29582 25.4652 3.06568 24.7247 3 23.961C3 21.4815 5.724 19.0515 10.287 17.4615C14.7191 16.0526 19.3499 15.3698 24 15.4395C28.5881 15.3754 33.1568 16.0458 37.533 17.4255C39.4534 18.0377 41.2502 18.9854 42.84 20.2245C43.452 20.6508 43.9627 21.2066 44.3359 21.8523C44.7092 22.498 44.9359 23.2179 45 23.961C45 26.538 41.955 29.1495 37.05 30.7725C32.8169 32.0315 28.4157 32.634 24 32.559ZM24 17.2335C19.5512 17.174 15.1212 17.8231 10.8765 19.1565C6.6765 20.622 4.794 22.626 4.794 23.9565C4.794 25.3485 6.8175 27.537 11.2605 29.0565C15.3901 30.2953 19.6899 30.8719 24 30.765C28.2246 30.8405 32.4359 30.2689 36.4875 29.07C41.1 27.5415 43.2 25.35 43.2 23.961C43.1243 23.4843 42.9506 23.0285 42.6898 22.6224C42.4291 22.2163 42.0869 21.8687 41.685 21.6015C40.2626 20.5022 38.6576 19.6623 36.9435 19.1205C32.757 17.8061 28.3875 17.1691 24 17.2335Z" fill="#00D8FF"/>
<path d="M15.48 42.6645C14.7802 42.6806 14.0888 42.5108 13.476 42.1725C11.328 40.9335 10.584 37.3605 11.4855 32.613C12.4795 28.0697 14.2017 23.717 16.5855 19.7235C18.8216 15.7172 21.6843 12.0944 25.065 8.99252C26.5547 7.63458 28.2733 6.55134 30.141 5.79302C30.8165 5.47643 31.5534 5.31232 32.2995 5.31232C33.0455 5.31232 33.7825 5.47643 34.458 5.79302C36.6915 7.08002 37.431 11.022 36.3885 16.0815C35.3638 20.3784 33.6863 24.4927 31.4145 28.281C29.2571 32.2401 26.4846 35.8313 23.2005 38.9205C21.6567 40.3317 19.865 41.4449 17.916 42.204C17.1357 42.4936 16.3121 42.6493 15.48 42.6645ZM18.1395 20.6145C15.8656 24.4385 14.215 28.6001 13.2495 32.943C12.42 37.3155 13.2165 39.945 14.3745 40.614C15.5745 41.3085 18.4875 40.65 22.0245 37.56C25.1595 34.6005 27.8058 31.1628 29.865 27.375C32.0414 23.7533 33.6505 19.8197 34.6365 15.711C35.6175 10.9485 34.77 8.03252 33.567 7.33952C33.1161 7.16676 32.6343 7.08943 32.152 7.1124C31.6697 7.13538 31.1974 7.25818 30.765 7.47302C29.1025 8.15904 27.5741 9.13297 26.25 10.35C23.02 13.3212 20.2855 16.7894 18.15 20.6235L18.1395 20.6145Z" fill="#00D8FF"/>
<path d="M32.5155 42.684C30.483 42.684 27.9015 41.454 25.2135 39.1425C21.7736 36.0124 18.8625 32.3466 16.593 28.287C14.2391 24.3486 12.5305 20.0588 11.532 15.5805C11.099 13.6103 11.0187 11.5788 11.295 9.58053C11.3589 8.83924 11.5846 8.12099 11.9563 7.47642C12.3279 6.83186 12.8364 6.27668 13.446 5.85003C15.6765 4.55853 19.461 5.88603 23.3235 9.31503C26.5344 12.3483 29.2611 15.8561 31.4085 19.716C33.761 23.5625 35.4875 27.7583 36.5235 32.1465C36.9752 34.1891 37.0449 36.2976 36.729 38.3655C36.6539 39.1281 36.4147 39.8655 36.0279 40.527C35.6411 41.1885 35.1158 41.7585 34.488 42.198C33.8853 42.5321 33.2045 42.6998 32.5155 42.684ZM18.1455 27.384C20.3227 31.2637 23.1034 34.7721 26.3835 37.7775C29.757 40.68 32.433 41.304 33.5835 40.6275C34.7835 39.93 35.6685 37.083 34.7565 32.4765C33.7573 28.2869 32.1013 24.2819 29.85 20.61C27.8008 16.9157 25.1981 13.5568 22.1325 10.65C18.4965 7.42203 15.5475 6.70053 14.346 7.39653C13.9715 7.70085 13.6642 8.07951 13.4435 8.50861C13.2227 8.9377 13.0933 9.40791 13.0635 9.88953C12.825 11.6717 12.9027 13.4819 13.293 15.237C14.2535 19.5197 15.8921 23.6215 18.147 27.387L18.1455 27.384Z" fill="#00D8FF"/>
</svg>
