<svg width="32" height="32" viewBox="0 0 32 32" fill="none" xmlns="http://www.w3.org/2000/svg">
<path d="M15.8031 20.6562C15.8265 20.6861 15.8564 20.7103 15.8905 20.7269C15.9246 20.7435 15.9621 20.7522 16 20.7522C16.0379 20.7522 16.0754 20.7435 16.1095 20.7269C16.1436 20.7103 16.1735 20.6861 16.1969 20.6562L19.6969 16.2281C19.825 16.0656 19.7094 15.825 19.5 15.825H17.1844V5.25C17.1844 5.1125 17.0719 5 16.9344 5H15.0594C14.9219 5 14.8094 5.1125 14.8094 5.25V15.8219H12.5C12.2906 15.8219 12.175 16.0625 12.3031 16.225L15.8031 20.6562ZM27.4375 19.5625H25.5625C25.425 19.5625 25.3125 19.675 25.3125 19.8125V24.625H6.6875V19.8125C6.6875 19.675 6.575 19.5625 6.4375 19.5625H4.5625C4.425 19.5625 4.3125 19.675 4.3125 19.8125V26C4.3125 26.5531 4.75937 27 5.3125 27H26.6875C27.2406 27 27.6875 26.5531 27.6875 26V19.8125C27.6875 19.675 27.575 19.5625 27.4375 19.5625Z" fill="white"/>
</svg>
