<svg width="48" height="48" viewBox="0 0 48 48" fill="none" xmlns="http://www.w3.org/2000/svg">
<path d="M47.733 26.6302L41.8247 23.7761L47.4215 21.1584C47.8558 20.9548 48.1106 20.4178 47.8104 19.9172L47.2288 19.2438C46.8534 18.8332 46.4458 18.534 45.9506 18.7288L41.7922 20.2963C41.7014 20.3305 41.602 20.3347 41.5085 20.3083L39.8989 19.8523C39.8402 19.8357 39.7782 19.8347 39.719 19.8493C39.6598 19.8638 39.6054 19.8936 39.5612 19.9355L37.8394 21.57C37.4624 19.4031 36.5797 17.3558 35.2629 15.5942L37.7801 15.5745C37.8334 15.574 37.8855 15.5594 37.9313 15.5321C37.977 15.5048 38.0147 15.4659 38.0404 15.4192L38.9314 13.803C38.9777 13.7189 39.0509 13.6528 39.1393 13.6153L43.2583 11.859C43.5112 11.7512 43.6669 11.2256 43.6183 10.8847L43.4842 9.65472C43.3747 9.30147 42.8786 8.99059 42.6416 9.07816L36.4457 11.2378L38.5524 5.42903C38.7154 4.97809 38.5159 4.41841 37.9496 4.27647L37.0622 4.21178C36.5064 4.18703 36.0065 4.26334 35.7941 4.75141L33.962 8.80009C33.922 8.88851 33.8547 8.96177 33.7701 9.00916L32.3094 9.82478C32.2562 9.85454 32.2116 9.89764 32.18 9.94984C32.1485 10.002 32.131 10.0616 32.1294 10.1225L32.0675 12.4967C30.2686 11.2305 28.1961 10.4071 26.0188 10.0935L27.7862 8.29834C27.8235 8.26039 27.8501 8.21317 27.8632 8.16153C27.8763 8.10989 27.8754 8.0557 27.8606 8.00453L27.3478 6.23172C27.3211 6.13945 27.3261 6.04092 27.3619 5.95178L29.0325 1.79734C29.1354 1.54234 28.8739 1.06047 28.5982 0.853845L27.6337 0.0787195C27.3064 -0.0934055 26.7356 0.037282 26.63 0.266782L23.7759 6.17528L21.1582 0.57822C20.9546 0.14397 20.4176 -0.110655 19.917 0.189345L19.2437 0.771157C18.833 1.14653 18.5338 1.55397 18.7288 2.04934L20.2961 6.20753C20.3304 6.29847 20.3345 6.39784 20.3081 6.49122L19.8523 8.10109C19.8356 8.15973 19.8346 8.2217 19.8492 8.28089C19.8638 8.34007 19.8935 8.39443 19.9355 8.43859L21.5698 10.1604C19.4031 10.5374 17.3558 11.42 15.5942 12.7367L15.5743 10.2198C15.5739 10.1665 15.5594 10.1143 15.5321 10.0685C15.5049 10.0227 15.4659 9.98497 15.4192 9.95922L13.803 9.06841C13.7189 9.02207 13.6528 8.94894 13.6151 8.86066L11.859 4.74128C11.7512 4.48853 11.2256 4.33291 10.8845 4.38166L9.65455 4.51553C9.30149 4.62522 8.99042 5.12116 9.07799 5.35816L11.2378 11.5543L5.42905 9.44753C4.97792 9.28441 4.41824 9.48409 4.2763 10.0503L4.21161 10.9378C4.18686 11.4933 4.26317 11.9934 4.75124 12.2057L8.79992 14.0375C8.88841 14.0776 8.96169 14.1451 9.00899 14.2299L9.82499 15.6905C9.88536 15.7987 9.99861 15.8672 10.1225 15.8703L12.4963 15.9322C11.2303 17.7311 10.407 19.8035 10.0935 21.9808L8.29817 20.2136C8.26022 20.1762 8.213 20.1496 8.16136 20.1365C8.10972 20.1235 8.05553 20.1244 8.00436 20.1392L6.23155 20.652C6.13935 20.6787 6.04084 20.6738 5.9518 20.6379L1.79736 18.9671C1.54217 18.8645 1.06049 19.1261 0.853861 19.4015L0.0787357 20.3662C-0.0933893 20.6934 0.0374857 21.264 0.266986 21.3697L6.17511 24.2238L0.578236 26.8413C0.143986 27.0452 -0.110639 27.582 0.189361 28.0826L0.771173 28.7561C1.14655 29.1665 1.55417 29.466 2.04936 29.2712L6.20774 27.7037C6.29859 27.6695 6.398 27.6653 6.49142 27.6917L8.10111 28.1477C8.22036 28.1814 8.34861 28.1495 8.43861 28.0644L10.1606 26.43C10.5375 28.5967 11.4202 30.644 12.7369 32.4056L10.2199 32.4255C10.1666 32.4259 10.1144 32.4405 10.0687 32.4678C10.023 32.4951 9.98531 32.5341 9.95961 32.5807L9.06861 34.1968C9.02211 34.2809 8.94886 34.3471 8.86049 34.3848L4.74167 36.141C4.48855 36.2488 4.33292 36.7743 4.38167 37.1152L4.51555 38.3452C4.62524 38.6985 5.12117 39.0093 5.35836 38.9218L11.5543 36.7622L9.44755 42.5709C9.28442 43.0218 9.48411 43.5815 10.0504 43.7235L10.9378 43.7882C11.4934 43.8129 11.9934 43.7366 12.2057 43.2485L14.0375 39.1998C14.0778 39.1114 14.1452 39.0382 14.2299 38.9908L15.6905 38.175C15.7987 38.1144 15.8672 38.0013 15.8704 37.8774L15.9322 35.5033C17.7311 36.7695 19.8036 37.5929 21.981 37.9065L20.2136 39.7016C20.1763 39.7396 20.1498 39.7868 20.1367 39.8384C20.1237 39.8901 20.1246 39.9442 20.1394 39.9954L20.6522 41.7682C20.6788 41.8605 20.6738 41.959 20.6379 42.0482L18.9671 46.2026C18.8645 46.4576 19.1261 46.9395 19.4017 47.1461L20.366 47.921C20.6932 48.0932 21.2638 47.9623 21.3697 47.733L24.2235 41.8245L26.8415 47.4213C27.0452 47.8558 27.582 48.1104 28.0828 47.8104L28.7559 47.2286C29.1664 46.8532 29.466 46.4456 29.271 45.9504L27.7035 41.7922C27.6693 41.7014 27.6651 41.6019 27.6917 41.5085L28.1473 39.8987C28.181 39.7794 28.1495 39.6512 28.0642 39.5612L26.43 37.8392C28.5968 37.4623 30.6441 36.5796 32.4056 35.2627L32.4255 37.7801C32.4262 37.8885 32.4855 37.988 32.5806 38.0403L34.1968 38.9313C34.2808 38.9777 34.3468 39.0508 34.3847 39.1391L36.1408 43.2583C36.2486 43.5112 36.7742 43.6668 37.1152 43.6181L38.3451 43.4842C38.6983 43.3745 39.0092 42.8786 38.9218 42.6416L36.7618 36.4455L42.5705 38.5522C43.0219 38.7153 43.5816 38.5157 43.7235 37.9494L43.7882 37.062C43.8129 36.5064 43.7364 36.0063 43.2486 35.7941L39.1999 33.962C39.1114 33.9219 39.0381 33.8546 38.9906 33.7698L38.1748 32.3092C38.1451 32.256 38.102 32.2114 38.0498 32.1798C37.9977 32.1483 37.9382 32.1308 37.8772 32.1292L35.5031 32.0673C36.7692 30.2686 37.5926 28.1962 37.9063 26.019L39.7016 27.7862C39.7396 27.8235 39.7867 27.8501 39.8383 27.8632C39.8899 27.8762 39.9441 27.8754 39.9952 27.8606L41.7682 27.3478C41.8604 27.321 41.9589 27.326 42.048 27.3618L46.2024 29.0325C46.4574 29.1352 46.9393 28.8737 47.1459 28.5982L47.9209 27.6337C48.0932 27.3065 47.9621 26.736 47.7328 26.6302H47.733ZM34.0753 22.4328H31.0875C30.8737 21.4622 30.4618 20.5461 29.8775 19.742L31.9717 17.6477C33.0536 19.0038 33.7987 20.6405 34.0753 22.4327V22.4328ZM27.9028 17.8809C27.0658 17.3448 26.1269 16.9876 25.1452 16.8317V13.8705C26.9064 14.0669 28.5853 14.7216 30.0144 15.7693L27.9028 17.8809ZM27.539 24C27.539 25.9545 25.9547 27.539 24 27.539C22.0455 27.539 20.4609 25.9545 20.4609 24C20.4609 22.0455 22.0453 20.4609 24 20.4609C25.9547 20.4609 27.539 22.0453 27.539 24ZM22.4329 13.9247V16.9125C21.4623 17.1264 20.5463 17.5383 19.7422 18.1224L17.6479 16.028C19.004 14.9462 20.6404 14.2012 22.4329 13.9247ZM17.8809 20.0972C17.3449 20.9342 16.9878 21.8731 16.8319 22.8547H13.8705C14.067 21.0936 14.7217 19.4146 15.7693 17.9853L17.8809 20.0972ZM13.9247 25.5671H16.9127C17.1265 26.5377 17.5384 27.4537 18.1226 28.2577L16.0282 30.3521C14.9464 28.9961 14.2014 27.3594 13.9249 25.5671H13.9247ZM20.0972 30.119C20.9342 30.6551 21.8731 31.0123 22.8547 31.1683V34.1295C21.0936 33.9331 19.4148 33.2784 17.9857 32.2307L20.097 30.119H20.0972ZM25.5673 34.0753V31.0875C26.5378 30.8735 27.4538 30.4616 28.2579 29.8775L30.3521 31.9717C28.9961 33.0536 27.3594 33.7987 25.5671 34.0753H25.5673ZM30.1192 27.9028C30.6551 27.0657 31.0123 26.1269 31.1683 25.1452H34.1297C33.9331 26.9063 33.2784 28.5852 32.2309 30.0144L30.1192 27.9028Z" fill="#E16426"/>
</svg>
