<svg width="32" height="32" viewBox="0 0 32 32" fill="none" xmlns="http://www.w3.org/2000/svg">
<path d="M17.9375 20.7937C17.8905 20.7472 17.8271 20.7211 17.7609 20.7211C17.6948 20.7211 17.6314 20.7472 17.5844 20.7937L13.9531 24.425C12.2719 26.1062 9.43438 26.2844 7.57813 24.425C5.71876 22.5656 5.89688 19.7312 7.57813 18.05L11.2094 14.4187C11.3063 14.3219 11.3063 14.1625 11.2094 14.0656L9.96563 12.8219C9.91864 12.7753 9.85519 12.7492 9.78907 12.7492C9.72294 12.7492 9.65949 12.7753 9.61251 12.8219L5.98126 16.4531C3.33751 19.0969 3.33751 23.375 5.98126 26.0156C8.62501 28.6562 12.9031 28.6594 15.5438 26.0156L19.175 22.3844C19.2719 22.2875 19.2719 22.1281 19.175 22.0312L17.9375 20.7937ZM26.0188 5.98123C23.375 3.33748 19.0969 3.33748 16.4563 5.98123L12.8219 9.61248C12.7754 9.65946 12.7493 9.72291 12.7493 9.78904C12.7493 9.85516 12.7754 9.91861 12.8219 9.9656L14.0625 11.2062C14.1594 11.3031 14.3188 11.3031 14.4156 11.2062L18.0469 7.57498C19.7281 5.89373 22.5656 5.7156 24.4219 7.57498C26.2813 9.43435 26.1031 12.2687 24.4219 13.95L20.7906 17.5812C20.7441 17.6282 20.718 17.6917 20.718 17.7578C20.718 17.8239 20.7441 17.8874 20.7906 17.9344L22.0344 19.1781C22.1313 19.275 22.2906 19.275 22.3875 19.1781L26.0188 15.5469C28.6594 12.9031 28.6594 8.62498 26.0188 5.98123ZM19.0656 11.6344C19.0186 11.5878 18.9552 11.5617 18.8891 11.5617C18.8229 11.5617 18.7595 11.5878 18.7125 11.6344L11.6344 18.7094C11.5879 18.7563 11.5618 18.8198 11.5618 18.8859C11.5618 18.952 11.5879 19.0155 11.6344 19.0625L12.8719 20.3C12.9688 20.3969 13.1281 20.3969 13.225 20.3L20.3 13.225C20.3969 13.1281 20.3969 12.9687 20.3 12.8719L19.0656 11.6344Z" fill="#394F8A"/>
</svg>
