<svg width="48" height="48" viewBox="0 0 48 48" fill="none" xmlns="http://www.w3.org/2000/svg">
<path d="M23.8275 3.15002C13.1775 3.15002 13.851 7.75502 13.851 7.75502V12.54H23.979V14.04H9.8175C9.8175 14.04 3 13.2 3 24.0075C3 34.815 9.0195 34.3755 9.0195 34.3755H12.495V29.334C12.495 29.334 12.3 23.3145 18.345 23.3145H28.488C28.488 23.3145 34.146 23.4045 34.146 17.8365V8.70002C34.146 8.70002 35.004 3.13202 23.883 3.13202L23.8275 3.15002ZM18.2295 6.35552C18.5896 6.34643 18.9442 6.44433 19.2486 6.63682C19.5531 6.82931 19.7936 7.10776 19.9397 7.43694C20.0859 7.76612 20.1312 8.13126 20.0698 8.48617C20.0084 8.84108 19.8432 9.16982 19.595 9.43082C19.3468 9.69182 19.0268 9.87336 18.6754 9.95247C18.324 10.0316 17.9571 10.0047 17.621 9.87527C17.2849 9.74583 16.9947 9.51962 16.7871 9.22525C16.5796 8.93088 16.464 8.58158 16.455 8.22152V8.19152C16.455 7.70856 16.6469 7.24538 16.9884 6.90388C17.3299 6.56237 17.793 6.37052 18.276 6.37052L18.2295 6.35552Z" fill="url(#paint0_linear_5_52)"/>
<path d="M24.1275 44.865C34.7775 44.865 34.104 40.245 34.104 40.245V35.475H23.9775V33.975H38.1825C38.1825 33.975 45 34.737 45 23.9925C45 13.248 38.9805 13.6245 38.9805 13.6245H35.46V18.6C35.46 18.6 35.655 24.6195 29.61 24.6195H19.4625C19.4625 24.6195 13.8 24.534 13.8 30.102V39.3C13.8 39.3 12.942 44.868 24.063 44.868H24.123L24.1275 44.865ZM29.7255 41.6445C29.3654 41.6536 29.0108 41.5557 28.7064 41.3632C28.4019 41.1707 28.1614 40.8922 28.0153 40.5631C27.8691 40.2339 27.8238 39.8687 27.8852 39.5138C27.9466 39.1589 28.1118 38.8302 28.36 38.5692C28.6082 38.3082 28.9282 38.1266 29.2796 38.0475C29.631 37.9684 29.9979 37.9953 30.334 38.1247C30.6701 38.2542 30.9603 38.4804 31.1679 38.7747C31.3754 39.0691 31.491 39.4184 31.5 39.7785V39.8235C31.5 40.3064 31.3081 40.7696 30.9666 41.1111C30.6251 41.4526 30.162 41.6445 29.679 41.6445H29.724H29.7255Z" fill="url(#paint1_linear_5_52)"/>
<defs>
<linearGradient id="paint0_linear_5_52" x1="7.15074" y1="7.23437" x2="27.0807" y2="27.1192" gradientUnits="userSpaceOnUse">
<stop stop-color="#387EB8"/>
<stop offset="1" stop-color="#366994"/>
</linearGradient>
<linearGradient id="paint1_linear_5_52" x1="18.9412" y1="20.1878" x2="41.7115" y2="40.0667" gradientUnits="userSpaceOnUse">
<stop stop-color="#FFE052"/>
<stop offset="1" stop-color="#FFC331"/>
</linearGradient>
</defs>
</svg>
