<svg width="48" height="48" viewBox="0 0 48 48" fill="none" xmlns="http://www.w3.org/2000/svg">
<path d="M12.843 22.884C16.425 24.143 20.2039 24.7491 24 24.6735C27.7962 24.7487 31.5751 24.142 35.157 22.8825C37.953 21.792 38.9445 20.58 38.9445 19.8825V14.55C37.967 15.2046 36.9182 15.7461 35.8185 16.164C32.0287 17.521 28.0249 18.1827 24 18.117C19.9754 18.1814 15.9721 17.5209 12.1815 16.167C11.0812 15.7491 10.0324 15.2065 9.0555 14.55V19.875C9.0555 20.586 10.05 21.792 12.843 22.884ZM12.843 32.9415C14.1084 33.4241 15.4133 33.796 16.743 34.053C19.1341 34.5155 21.5646 34.7431 24 34.7325C26.4353 34.7436 28.8659 34.5165 31.257 34.0545C32.5867 33.7974 33.8916 33.4255 35.157 32.943C37.953 31.8525 38.9445 30.6405 38.9445 29.943V24.858C38.1365 25.3442 37.2872 25.7583 36.4065 26.0955C32.4252 27.5051 28.2228 28.1875 24 28.11C19.7767 28.1851 15.5744 27.5002 11.5935 26.088C10.7132 25.7499 9.86398 25.3359 9.0555 24.8505V29.94C9.0555 30.639 10.05 31.8465 12.843 32.9415ZM24 45C32.25 45 38.9445 42.384 38.9445 39.159V34.9035C38.2094 35.3466 37.4394 35.7289 36.642 36.0465L36.4065 36.141C32.4259 37.5548 28.2235 38.2412 24 38.1675C19.7763 38.2434 15.5735 37.5569 11.5935 36.141C11.5125 36.111 11.4345 36.0765 11.358 36.0465C10.5606 35.7289 9.79057 35.3466 9.0555 34.9035V39.159C9.0555 42.384 15.75 45 24 45Z" fill="#FFDA44"/>
<path d="M24 14.682C32.2536 14.682 38.9445 12.0669 38.9445 8.841C38.9445 5.6151 32.2536 3 24 3C15.7464 3 9.0555 5.6151 9.0555 8.841C9.0555 12.0669 15.7464 14.682 24 14.682Z" fill="#FFDA44"/>
</svg>
